<svg width="40" height="40" viewBox="0 0 40 40" fill="none" xmlns="http://www.w3.org/2000/svg">
<rect width="40" height="40" rx="5" fill="white"/>
<path d="M7.62501 8.74414C6.7299 8.74414 5.87146 9.09972 5.23852 9.73266C4.60559 10.3656 4.25001 11.224 4.25001 12.1191V18.8691C4.24712 21.8581 5.32617 24.7472 7.28778 27.0025C9.24938 29.2577 11.961 30.7268 14.9215 31.1383C17.8821 31.5497 20.8915 30.8757 23.3937 29.2408C25.896 27.606 27.722 25.1206 28.5343 22.2441H30.125C31.6168 22.2441 33.0476 21.6515 34.1025 20.5966C35.1574 19.5417 35.75 18.111 35.75 16.6191C35.75 15.1273 35.1574 13.6966 34.1025 12.6417C33.0476 11.5868 31.6168 10.9941 30.125 10.9941H28.8088C28.576 10.3358 28.1448 9.76593 27.5746 9.36295C27.0044 8.95998 26.3232 8.74378 25.625 8.74414H7.62501ZM29 13.2441H30.125C31.0201 13.2441 31.8786 13.5997 32.5115 14.2327C33.1444 14.8656 33.5 15.724 33.5 16.6191C33.5 17.5142 33.1444 18.3727 32.5115 19.0056C31.8786 19.6386 31.0201 19.9941 30.125 19.9941H28.9505C28.982 19.6229 29 19.2494 29 18.8691V13.2441Z" fill="#07242A"/>
</svg>
