<svg width="40" height="40" viewBox="0 0 40 40" fill="none" xmlns="http://www.w3.org/2000/svg">
<path d="M19.9946 13.3305C16.3222 13.3305 13.3252 16.3275 13.3252 20C13.3252 23.6725 16.3222 26.6695 19.9946 26.6695C23.667 26.6695 26.664 23.6725 26.664 20C26.664 16.3275 23.667 13.3305 19.9946 13.3305ZM39.9978 20C39.9978 17.2381 40.0228 14.5013 39.8677 11.7444C39.7126 8.54226 38.9821 5.70034 36.6406 3.35876C34.294 1.01217 31.4572 0.286681 28.2551 0.131576C25.4932 -0.0235287 22.7564 0.00148823 19.9996 0.00148823C17.2378 0.00148823 14.501 -0.0235287 11.7442 0.131576C8.5421 0.286681 5.70023 1.01717 3.35869 3.35876C1.01215 5.70534 0.286675 8.54226 0.131574 11.7444C-0.0235283 14.5063 0.0014882 17.2431 0.0014882 20C0.0014882 22.7569 -0.0235283 25.4987 0.131574 28.2556C0.286675 31.4577 1.01716 34.2997 3.35869 36.6412C5.70524 38.9878 8.5421 39.7133 11.7442 39.8684C14.506 40.0235 17.2428 39.9985 19.9996 39.9985C22.7614 39.9985 25.4982 40.0235 28.2551 39.8684C31.4572 39.7133 34.299 38.9828 36.6406 36.6412C38.9871 34.2947 39.7126 31.4577 39.8677 28.2556C40.0278 25.4987 39.9978 22.7619 39.9978 20ZM19.9946 30.2619C14.3159 30.2619 9.73288 25.6788 9.73288 20C9.73288 14.3212 14.3159 9.73807 19.9946 9.73807C25.6734 9.73807 30.2564 14.3212 30.2564 20C30.2564 25.6788 25.6734 30.2619 19.9946 30.2619ZM30.6766 11.7144C29.3508 11.7144 28.2801 10.6437 28.2801 9.31778C28.2801 7.99189 29.3508 6.92116 30.6766 6.92116C32.0025 6.92116 33.0732 7.99189 33.0732 9.31778C33.0736 9.63262 33.0119 9.94445 32.8916 10.2354C32.7713 10.5263 32.5948 10.7907 32.3722 11.0133C32.1495 11.236 31.8852 11.4125 31.5942 11.5328C31.3033 11.6531 30.9915 11.7148 30.6766 11.7144Z" fill="white"/>
</svg>
