<svg width="40" height="40" viewBox="0 0 40 40" fill="none" xmlns="http://www.w3.org/2000/svg">
<rect width="40" height="40" rx="5" fill="white"/>
<path d="M21.9942 18.0057C20.9362 16.9481 19.5015 16.354 18.0056 16.354C16.5096 16.354 15.0749 16.9481 14.0169 18.0057L10.0269 21.9943C8.96891 23.0524 8.37451 24.4874 8.37451 25.9837C8.37451 27.4799 8.96891 28.9149 10.0269 29.973C11.085 31.031 12.52 31.6254 14.0163 31.6254C15.5125 31.6254 16.9475 31.031 18.0056 29.973L19.9999 27.9786" stroke="#07242A" stroke-width="4" stroke-linecap="round" stroke-linejoin="round"/>
<path d="M18.0054 21.9942C19.0634 23.0518 20.4981 23.6459 21.994 23.6459C23.49 23.6459 24.9247 23.0518 25.9827 21.9942L29.9727 18.0056C31.0307 16.9475 31.6251 15.5125 31.6251 14.0163C31.6251 12.52 31.0307 11.085 29.9727 10.0269C28.9146 8.96891 27.4796 8.37451 25.9833 8.37451C24.4871 8.37451 23.0521 8.96891 21.994 10.0269L19.9997 12.0213" stroke="#07242A" stroke-width="4" stroke-linecap="round" stroke-linejoin="round"/>
</svg>
