<svg width="40" height="40" viewBox="0 0 40 40" fill="none" xmlns="http://www.w3.org/2000/svg">
<rect width="40" height="40" rx="5" fill="white"/>
<path d="M24.3365 24.9648L26.5765 22.9348C26.8782 22.6648 27.2599 22.48 27.6753 22.4027C28.0907 22.3255 28.5218 22.3592 28.9165 22.4998L31.6465 23.4876C32.0453 23.6343 32.3873 23.8847 32.6293 24.2073C32.8713 24.5298 33.0025 24.9101 33.0065 25.3001V29.8314C33.0042 30.0967 32.9426 30.3589 32.8255 30.6021C32.7085 30.8453 32.5383 31.0645 32.3253 31.2466C32.1123 31.4286 31.8608 31.5697 31.5861 31.6613C31.3113 31.753 31.0189 31.7933 30.7265 31.7798C11.5965 30.7014 7.73648 16.0201 7.00648 10.4014C6.97259 10.1255 7.00356 9.84617 7.09733 9.58187C7.1911 9.31757 7.34556 9.07427 7.55055 8.86795C7.75553 8.66164 8.0064 8.497 8.28664 8.38486C8.56688 8.27271 8.87014 8.21562 9.17648 8.21732H14.0065C14.4375 8.21848 14.8583 8.33646 15.2147 8.55611C15.5711 8.77575 15.8468 9.087 16.0065 9.44982L17.0965 11.9239C17.2567 12.2801 17.2976 12.6712 17.214 13.0484C17.1304 13.4255 16.9261 13.772 16.6265 14.0445L14.3865 16.0745C14.3865 16.0745 15.6765 23.9861 24.3365 24.9648Z" fill="#07242A"/>
</svg>
