<svg width="28" height="29" viewBox="0 0 28 29" fill="none" xmlns="http://www.w3.org/2000/svg">
<path d="M2 28H8.51724C9.06953 28 9.51724 27.5523 9.51724 27V21C9.51724 20.4477 9.96496 20 10.5172 20H17.4828C18.035 20 18.4828 20.4477 18.4828 21V27C18.4828 27.5523 18.9305 28 19.4828 28H26C26.5523 28 27 27.5523 27 27V12.4638C27 12.1696 26.8705 11.8904 26.6459 11.7004L14.6459 1.54657C14.2731 1.23108 13.7269 1.23108 13.3541 1.54657L1.35406 11.7004C1.12951 11.8904 1 12.1696 1 12.4638V27C1 27.5523 1.44772 28 2 28Z" stroke="#8ABCFE" stroke-width="2"/>
</svg>
