<svg width="32" height="24" viewBox="0 0 32 24" fill="none" xmlns="http://www.w3.org/2000/svg">
<path d="M26.7434 2.3026C24.7672 1.41135 22.6488 0.7526 20.4336 0.378017C20.4139 0.37423 20.3935 0.376671 20.3752 0.385002C20.3569 0.393333 20.3417 0.407142 20.3316 0.424517C20.0603 0.901142 19.7581 1.52243 19.5462 2.01327C17.1968 1.66224 14.8083 1.66224 12.4589 2.01327C12.2229 1.4693 11.9569 0.93889 11.6619 0.424517C11.6519 0.406928 11.6368 0.392806 11.6186 0.384037C11.6003 0.375267 11.5799 0.372265 11.5599 0.375434C9.34595 0.750017 7.22762 1.40877 5.25008 2.30131C5.23307 2.30844 5.21864 2.32061 5.20875 2.33618C1.18908 8.24556 0.0872875 14.009 0.628496 19.7001C0.630002 19.714 0.634328 19.7275 0.641212 19.7397C0.648096 19.7519 0.657393 19.7626 0.668537 19.7711C3.01471 21.4792 5.63156 22.7804 8.4095 23.6203C8.42886 23.6262 8.44957 23.6262 8.46893 23.6202C8.48829 23.6142 8.50538 23.6025 8.51799 23.5867C9.11577 22.7872 9.64549 21.9391 10.1016 21.0511C10.1079 21.039 10.1116 21.0256 10.1123 21.012C10.113 20.9983 10.1108 20.9846 10.1057 20.9719C10.1007 20.9592 10.093 20.9476 10.0832 20.9381C10.0733 20.9286 10.0615 20.9214 10.0486 20.9168C9.21421 20.6026 8.40573 20.2234 7.63062 19.7827C7.61669 19.7748 7.60496 19.7635 7.59647 19.7499C7.58797 19.7363 7.58299 19.7208 7.58197 19.7048C7.58094 19.6888 7.58391 19.6728 7.5906 19.6582C7.59728 19.6436 7.60749 19.6309 7.62029 19.6213C7.78304 19.5011 7.94579 19.3759 8.10079 19.2506C8.11474 19.2393 8.13155 19.2321 8.14933 19.2298C8.16712 19.2276 8.18519 19.2303 8.20154 19.2376C13.2739 21.5161 18.7674 21.5161 23.7803 19.2376C23.7967 19.2298 23.815 19.2268 23.833 19.2288C23.8511 19.2309 23.8682 19.238 23.8824 19.2493C24.0374 19.3758 24.1988 19.5011 24.3629 19.6213C24.3758 19.6307 24.3862 19.6432 24.3931 19.6577C24.4 19.6721 24.4032 19.6881 24.4024 19.7041C24.4016 19.7201 24.3969 19.7356 24.3887 19.7494C24.3804 19.7631 24.3689 19.7745 24.3551 19.7827C23.5827 20.2271 22.7793 20.6029 21.9358 20.9155C21.9229 20.9202 21.9111 20.9276 21.9012 20.9373C21.8914 20.9469 21.8837 20.9585 21.8786 20.9713C21.8736 20.9842 21.8714 20.9979 21.8721 21.0117C21.8729 21.0255 21.8765 21.0389 21.8829 21.0511C22.3479 21.9385 22.88 22.7833 23.4652 23.5854C23.4773 23.6019 23.4943 23.6142 23.5137 23.6206C23.5331 23.6271 23.5541 23.6274 23.5737 23.6216C26.3564 22.7841 28.9775 21.4823 31.3262 19.7711C31.3377 19.7631 31.3473 19.7527 31.3544 19.7407C31.3616 19.7287 31.3661 19.7152 31.3676 19.7013C32.0134 13.1216 30.2852 7.40468 26.7835 2.33877C26.7749 2.3223 26.7607 2.30947 26.7434 2.3026ZM10.8598 16.2345C9.33304 16.2345 8.07366 14.8537 8.07366 13.1603C8.07366 11.4657 9.3085 10.0862 10.8598 10.0862C12.4227 10.0862 13.6705 11.4773 13.6459 13.1603C13.6459 14.855 12.4111 16.2345 10.8598 16.2345ZM21.1608 16.2345C19.6328 16.2345 18.3747 14.8537 18.3747 13.1603C18.3747 11.4657 19.6082 10.0862 21.1608 10.0862C22.7237 10.0862 23.9715 11.4773 23.947 13.1603C23.947 14.855 22.725 16.2345 21.1608 16.2345Z" fill="black"/>
</svg>
