<svg width="33" height="23" viewBox="0 0 33 23" fill="none" xmlns="http://www.w3.org/2000/svg">
<path d="M4.12501 0.25C3.2299 0.25 2.37146 0.60558 1.73852 1.23852C1.10559 1.87145 0.750006 2.72989 0.750006 3.625V10.375C0.747125 13.364 1.82617 16.253 3.78778 18.5083C5.74938 20.7636 8.46096 22.2327 11.4215 22.6441C14.3821 23.0556 17.3915 22.3816 19.8937 20.7467C22.396 19.1118 24.222 16.6265 25.0343 13.75H26.625C28.1168 13.75 29.5476 13.1574 30.6025 12.1025C31.6574 11.0476 32.25 9.61684 32.25 8.125C32.25 6.63316 31.6574 5.20242 30.6025 4.14752C29.5476 3.09263 28.1168 2.5 26.625 2.5H25.3088C25.076 1.8417 24.6448 1.27179 24.0746 0.868813C23.5044 0.465838 22.8232 0.249634 22.125 0.25H4.12501ZM25.5 4.75H26.625C27.5201 4.75 28.3786 5.10558 29.0115 5.73851C29.6444 6.37145 30 7.2299 30 8.125C30 9.02011 29.6444 9.87855 29.0115 10.5115C28.3786 11.1444 27.5201 11.5 26.625 11.5H25.4505C25.482 11.1287 25.5 10.7552 25.5 10.375V4.75Z" fill="black"/>
</svg>
