<svg width="40" height="40" viewBox="0 0 40 40" fill="none" xmlns="http://www.w3.org/2000/svg">
<rect width="40" height="40" rx="5" fill="white"/>
<path d="M30.7429 10.3024C28.7667 9.41117 26.6483 8.75242 24.4331 8.37783C24.4134 8.37405 24.393 8.37649 24.3747 8.38482C24.3564 8.39315 24.3412 8.40696 24.3311 8.42433C24.0598 8.90096 23.7576 9.52225 23.5458 10.0131C21.1963 9.66206 18.8078 9.66206 16.4584 10.0131C16.2224 9.46911 15.9564 8.93871 15.6614 8.42433C15.6514 8.40675 15.6363 8.39262 15.6181 8.38385C15.5998 8.37508 15.5794 8.37208 15.5594 8.37525C13.3455 8.74983 11.2271 9.40858 9.24959 10.3011C9.23258 10.3083 9.21815 10.3204 9.20826 10.336C5.18859 16.2454 4.0868 22.0088 4.62801 27.6999C4.62951 27.7138 4.63384 27.7273 4.64072 27.7395C4.64761 27.7517 4.6569 27.7624 4.66805 27.7709C7.01422 29.479 9.63107 30.7803 12.409 31.6201C12.4284 31.626 12.4491 31.626 12.4684 31.62C12.4878 31.614 12.5049 31.6024 12.5175 31.5865C13.1153 30.787 13.645 29.9389 14.1011 29.051C14.1074 29.0388 14.1111 29.0255 14.1118 29.0118C14.1125 28.9981 14.1103 28.9844 14.1053 28.9717C14.1002 28.959 14.0925 28.9475 14.0827 28.938C14.0728 28.9285 14.061 28.9212 14.0481 28.9166C13.2137 28.6024 12.4052 28.2232 11.6301 27.7825C11.6162 27.7746 11.6045 27.7633 11.596 27.7497C11.5875 27.7361 11.5825 27.7206 11.5815 27.7046C11.5805 27.6886 11.5834 27.6726 11.5901 27.658C11.5968 27.6434 11.607 27.6307 11.6198 27.6211C11.7825 27.501 11.9453 27.3757 12.1003 27.2504C12.1143 27.2391 12.1311 27.2319 12.1488 27.2297C12.1666 27.2274 12.1847 27.2301 12.201 27.2375C17.2734 29.516 22.7669 29.516 27.7798 27.2375C27.7962 27.2296 27.8145 27.2266 27.8325 27.2286C27.8506 27.2307 27.8677 27.2378 27.8819 27.2491C28.0369 27.3757 28.1983 27.501 28.3624 27.6211C28.3753 27.6305 28.3857 27.6431 28.3926 27.6575C28.3995 27.672 28.4027 27.6879 28.4019 27.7039C28.4012 27.7199 28.3964 27.7354 28.3882 27.7492C28.3799 27.7629 28.3684 27.7744 28.3546 27.7825C27.5822 28.2269 26.7788 28.6027 25.9353 28.9153C25.9224 28.92 25.9106 28.9274 25.9007 28.9371C25.8909 28.9467 25.8832 28.9583 25.8782 28.9712C25.8731 28.984 25.8709 28.9978 25.8717 29.0115C25.8724 29.0253 25.876 29.0387 25.8824 29.051C26.3474 29.9383 26.8795 30.7831 27.4647 31.5852C27.4768 31.6017 27.4938 31.614 27.5132 31.6204C27.5326 31.6269 27.5536 31.6272 27.5732 31.6214C30.3559 30.7839 32.977 29.4821 35.3258 27.7709C35.3372 27.7629 35.3468 27.7525 35.354 27.7405C35.3611 27.7285 35.3656 27.7151 35.3671 27.7012C36.0129 21.1214 34.2847 15.4045 30.783 10.3386C30.7744 10.3221 30.7602 10.3093 30.7429 10.3024ZM14.8593 24.2343C13.3326 24.2343 12.0732 22.8535 12.0732 21.1602C12.0732 19.4655 13.308 18.086 14.8593 18.086C16.4222 18.086 17.67 19.4771 17.6454 21.1602C17.6454 22.8548 16.4106 24.2343 14.8593 24.2343ZM25.1603 24.2343C23.6323 24.2343 22.3742 22.8535 22.3742 21.1602C22.3742 19.4655 23.6078 18.086 25.1603 18.086C26.7233 18.086 27.971 19.4771 27.9465 21.1602C27.9465 22.8548 26.7245 24.2343 25.1603 24.2343Z" fill="#07242A"/>
</svg>
