<svg width="40" height="40" viewBox="0 0 40 40" fill="none" xmlns="http://www.w3.org/2000/svg">
<rect width="40" height="40" rx="5" fill="white"/>
<path d="M20.2617 20.0869C20.2617 20.0869 21.3413 21.5323 22.357 21.9202C22.9382 22.1422 23.308 22.1359 23.9284 22.1822C24.4384 22.2202 24.7289 22.2321 25.2379 22.1822C25.7569 22.1313 26.0727 22.1361 26.5474 21.9202C26.8832 21.7676 27.3331 21.3964 27.3331 21.3964" stroke="#07242A"/>
<path d="M19.7383 19.8247C19.7383 19.8247 18.6587 21.2701 17.643 21.658C17.0618 21.88 16.692 21.8736 16.0716 21.9199C15.5616 21.958 15.2711 21.9698 14.7621 21.9199C14.2431 21.8691 13.9273 21.8739 13.4526 21.658C13.1168 21.5054 12.6669 21.1342 12.6669 21.1342" stroke="#07242A"/>
<path d="M30.7381 24.2774C30.7381 24.2774 29.3453 24.9559 28.381 25.0631C26.9255 25.2248 26.0725 24.825 24.7143 24.2774C24.078 24.0208 23.9286 24.0155 23.1429 23.4917C22.3571 22.9678 21.5715 21.9202 21.3095 21.6583C21.0476 21.3964 20.7857 20.8726 20.5238 20.3488C20.2619 19.825 20 19.0393 20 18.2536C20 17.5376 20 16.6821 20 16.6821" stroke="#07242A"/>
<path d="M9.00018 24.2774C9.00018 24.2774 10.3929 24.9559 11.3573 25.0631C12.8128 25.2248 13.6658 24.825 15.024 24.2774C15.6603 24.0208 15.8097 24.0155 16.5954 23.4917C17.3812 22.9678 18.1668 21.9202 18.4287 21.6583C18.6907 21.3964 18.9526 20.8726 19.2145 20.3488C19.4764 19.825 19.7383 19.0393 19.7383 18.2536C19.7382 17.5376 19.7383 16.6821 19.7383 16.6821" stroke="#07242A"/>
<path d="M20 19.0391V25.3248" stroke="#07242A"/>
<path d="M13.1904 14.8487C12.0821 14.1507 11.4167 13.754 10.5714 12.7534C9.94865 12.0164 9.44543 11.6055 9.26185 10.6582C9.16455 10.1561 9.16872 9.85153 9.26185 9.34867C9.36214 8.80709 9.51445 8.51855 9.78565 8.03915C10.1081 7.46913 10.0476 7.25345 10.8333 6.72963C11.6189 6.20581 12.4046 5.9439 12.6666 5.94391C12.9286 5.94392 13.646 5.78244 14.238 5.94391C15.3544 6.24838 16.3333 8.03915 16.3333 8.03915C16.3333 8.03915 15.9893 6.38332 16.3333 5.4201C16.5339 4.85846 16.6897 4.52463 17.119 4.11058C17.6128 3.63424 18.0369 3.53398 18.6904 3.32487C19.4758 3.07355 19.9771 2.90124 20.7857 3.06296C21.5943 3.22468 22.076 3.48994 22.619 4.11058C23.1319 4.69685 23.2442 5.18168 23.4047 5.94391C23.5733 6.7446 23.4047 8.03915 23.4047 8.03915C23.4047 8.03915 24.1227 6.60689 24.9761 6.20582C25.5392 5.94121 25.9256 5.95838 26.5476 5.94391C27.2706 5.9271 27.7211 5.90969 28.3809 6.20582C28.9784 6.47397 29.2761 6.74624 29.6904 7.25344C30.1245 7.78479 30.3151 8.1579 30.4761 8.82487C30.6441 9.52084 30.614 9.95564 30.4761 10.6582C30.3261 11.4226 30.1317 11.8497 29.6904 12.4915C29.2807 13.0875 28.9395 13.3416 28.3809 13.8011C27.6357 14.414 27.1371 14.6565 26.2857 15.1106C25.3968 15.5846 24.8777 15.8209 23.9285 16.1582C22.7364 16.5818 22.045 16.8225 20.7857 16.9439C19.9712 17.0224 19.5037 17.0335 18.6904 16.9439C17.5312 16.8163 16.8984 16.5755 15.8095 16.1582C14.7416 15.749 14.1581 15.458 13.1904 14.8487Z" stroke="#07242A"/>
<path d="M14.5 12.7537C14.5 12.7537 14.5556 12.0739 14.7619 11.7061C14.9742 11.3276 15.1709 11.1356 15.5476 10.9203C16.0004 10.6616 16.8571 10.6584 16.8571 10.6584C16.8571 10.6584 17.3468 10.5777 17.6429 10.6584C17.9986 10.7555 18.1462 10.9451 18.4286 11.1823C18.6501 11.3683 18.7971 11.462 18.9524 11.7061C19.126 11.9789 19.2143 12.4918 19.2143 12.4918" stroke="#07242A"/>
<path d="M21.0475 12.5018C21.0475 12.5018 21.2078 11.8388 21.4687 11.5075C21.7371 11.1665 21.9611 11.0074 22.3667 10.8531C22.8542 10.6677 23.701 10.7974 23.701 10.7974C23.701 10.7974 24.1973 10.7936 24.4772 10.9193C24.8136 11.0703 24.93 11.2805 25.1722 11.5586C25.3622 11.7767 25.4929 11.8921 25.6085 12.1573C25.7377 12.4538 25.7454 12.9741 25.7454 12.9741" stroke="#07242A"/>
<circle cx="17.3811" cy="11.9675" r="1.04762" fill="#07242A"/>
<circle cx="23.6668" cy="11.9675" r="1.04762" fill="#07242A"/>
<path d="M18.4287 14.063C18.4287 14.063 19.316 14.9013 20.0001 14.8487C20.5948 14.803 21.3097 14.063 21.3097 14.063" stroke="#07242A"/>
<path d="M13.239 34.3247V33.6587H10.449V28.3217H9.702V34.3247H13.239ZM18.2229 34.3247V33.6587H15.0369V31.5887H18.1599V30.9227H15.0369V28.9877H18.2229V28.3217H14.2899V34.3247H18.2229ZM24.3819 34.3247V28.3217H23.6349V33.0647L20.1789 28.3217H19.4139V34.3247H20.1609V29.4827L23.6619 34.3247H24.3819ZM25.426 33.4787C25.921 34.0367 26.686 34.4327 27.73 34.4327C29.35 34.4327 29.944 33.5417 29.944 32.6687C29.944 31.4087 28.828 31.1027 27.847 30.8417C27.082 30.6347 26.389 30.4547 26.389 29.8517C26.389 29.2847 26.902 28.8977 27.622 28.8977C28.279 28.8977 28.909 29.1227 29.359 29.6177L29.809 29.0687C29.305 28.5377 28.594 28.2317 27.676 28.2317C26.497 28.2317 25.615 28.9067 25.615 29.8967C25.615 31.0757 26.686 31.3457 27.649 31.5977C28.441 31.8137 29.17 32.0117 29.17 32.7317C29.17 33.1907 28.828 33.7667 27.757 33.7667C26.911 33.7667 26.263 33.3527 25.867 32.9117L25.426 33.4787Z" fill="#07242A"/>
</svg>
