<svg width="40" height="40" viewBox="0 0 40 40" fill="none" xmlns="http://www.w3.org/2000/svg">
<rect width="40" height="40" rx="5" fill="white"/>
<path d="M30.7429 10.3027C28.7667 9.41141 26.6483 8.75266 24.4331 8.37808C24.4134 8.37429 24.393 8.37673 24.3747 8.38506C24.3564 8.39339 24.3412 8.4072 24.3311 8.42458C24.0598 8.9012 23.7576 9.52249 23.5458 10.0133C21.1963 9.6623 18.8078 9.6623 16.4584 10.0133C16.2224 9.46936 15.9564 8.93895 15.6614 8.42458C15.6514 8.40699 15.6363 8.39287 15.6181 8.3841C15.5998 8.37533 15.5794 8.37233 15.5594 8.37549C13.3455 8.75008 11.2271 9.40883 9.24959 10.3014C9.23258 10.3085 9.21815 10.3207 9.20826 10.3362C5.18859 16.2456 4.0868 22.009 4.62801 27.7001C4.62951 27.7141 4.63384 27.7275 4.64072 27.7398C4.64761 27.752 4.6569 27.7627 4.66805 27.7712C7.01422 29.4793 9.63107 30.7805 12.409 31.6203C12.4284 31.6263 12.4491 31.6263 12.4684 31.6203C12.4878 31.6143 12.5049 31.6026 12.5175 31.5867C13.1153 30.7873 13.645 29.9391 14.1011 29.0512C14.1074 29.0391 14.1111 29.0257 14.1118 29.012C14.1125 28.9984 14.1103 28.9847 14.1053 28.972C14.1002 28.9592 14.0925 28.9477 14.0827 28.9382C14.0728 28.9287 14.061 28.9214 14.0481 28.9169C13.2137 28.6026 12.4052 28.2235 11.6301 27.7828C11.6162 27.7748 11.6045 27.7636 11.596 27.7499C11.5875 27.7363 11.5825 27.7208 11.5815 27.7048C11.5805 27.6888 11.5834 27.6728 11.5901 27.6583C11.5968 27.6437 11.607 27.631 11.6198 27.6213C11.7825 27.5012 11.9453 27.3759 12.1003 27.2506C12.1143 27.2394 12.1311 27.2322 12.1488 27.2299C12.1666 27.2276 12.1847 27.2303 12.201 27.2377C17.2734 29.5162 22.7669 29.5162 27.7798 27.2377C27.7962 27.2299 27.8145 27.2268 27.8325 27.2289C27.8506 27.2309 27.8677 27.238 27.8819 27.2493C28.0369 27.3759 28.1983 27.5012 28.3624 27.6213C28.3753 27.6308 28.3857 27.6433 28.3926 27.6578C28.3995 27.6722 28.4027 27.6881 28.4019 27.7041C28.4012 27.7201 28.3964 27.7357 28.3882 27.7494C28.3799 27.7631 28.3684 27.7746 28.3546 27.7828C27.5822 28.2271 26.7788 28.603 25.9353 28.9156C25.9224 28.9203 25.9106 28.9277 25.9007 28.9373C25.8909 28.9469 25.8832 28.9586 25.8782 28.9714C25.8731 28.9842 25.8709 28.998 25.8717 29.0118C25.8724 29.0255 25.876 29.039 25.8824 29.0512C26.3474 29.9386 26.8795 30.7833 27.4647 31.5855C27.4768 31.6019 27.4938 31.6142 27.5132 31.6207C27.5326 31.6272 27.5536 31.6275 27.5732 31.6216C30.3559 30.7842 32.977 29.4823 35.3258 27.7712C35.3372 27.7632 35.3468 27.7528 35.354 27.7408C35.3611 27.7287 35.3656 27.7153 35.3671 27.7014C36.0129 21.1217 34.2847 15.4047 30.783 10.3388C30.7744 10.3224 30.7602 10.3095 30.7429 10.3027ZM14.8593 24.2346C13.3325 24.2346 12.0732 22.8538 12.0732 21.1604C12.0732 19.4657 13.308 18.0862 14.8593 18.0862C16.4222 18.0862 17.67 19.4774 17.6454 21.1604C17.6454 22.8551 16.4106 24.2346 14.8593 24.2346V24.2346ZM25.1603 24.2346C23.6323 24.2346 22.3742 22.8538 22.3742 21.1604C22.3742 19.4657 23.6078 18.0862 25.1603 18.0862C26.7233 18.0862 27.971 19.4774 27.9465 21.1604C27.9465 22.8551 26.7245 24.2346 25.1603 24.2346V24.2346Z" fill="#07242A"/>
</svg>
