<svg width="40" height="40" viewBox="0 0 40 40" fill="none" xmlns="http://www.w3.org/2000/svg">
<rect width="40" height="40" rx="5" fill="white"/>
<path d="M24.3367 24.9651L26.5767 22.9351C26.8784 22.665 27.2601 22.4802 27.6755 22.403C28.0909 22.3258 28.5221 22.3595 28.9167 22.5001L31.6467 23.4879C32.0455 23.6346 32.3875 23.885 32.6295 24.2075C32.8715 24.5301 33.0028 24.9103 33.0067 25.3004V29.8316C33.0044 30.097 32.9429 30.3591 32.8258 30.6023C32.7087 30.8455 32.5386 31.0648 32.3255 31.2468C32.1125 31.4288 31.8611 31.5699 31.5863 31.6616C31.3115 31.7532 31.0191 31.7935 30.7267 31.7801C11.5967 30.7016 7.73673 16.0204 7.00673 10.4016C6.97284 10.1257 7.0038 9.84641 7.09757 9.58212C7.19135 9.31782 7.34581 9.07451 7.55079 8.8682C7.75578 8.66188 8.00664 8.49724 8.28688 8.3851C8.56712 8.27296 8.87039 8.21586 9.17673 8.21757H14.0067C14.4377 8.21872 14.8585 8.33671 15.2149 8.55635C15.5713 8.77599 15.8471 9.08724 16.0067 9.45007L17.0967 11.9241C17.257 12.2803 17.2979 12.6715 17.2143 13.0486C17.1307 13.4258 16.9263 13.7722 16.6267 14.0448L14.3867 16.0748C14.3867 16.0748 15.6767 23.9863 24.3367 24.9651Z" fill="#07242A"/>
</svg>
