<svg width="40" height="40" viewBox="0 0 40 40" fill="none" xmlns="http://www.w3.org/2000/svg">
<path d="M8.90004 3.5314e-05C7.73034 -0.00326425 6.57154 0.224689 5.49025 0.670787C4.40897 1.11689 3.42653 1.77233 2.59943 2.59943C1.77233 3.42653 1.11689 4.40897 0.670787 5.49025C0.224689 6.57154 -0.00326425 7.73034 3.5314e-05 8.90004V31.1C-0.00326425 32.2697 0.224689 33.4285 0.670787 34.5098C1.11689 35.5911 1.77233 36.5735 2.59943 37.4006C3.42653 38.2277 4.40897 38.8832 5.49025 39.3293C6.57154 39.7754 7.73034 40.0033 8.90004 40H31.1C32.2697 40.0033 33.4285 39.7754 34.5098 39.3293C35.5911 38.8832 36.5735 38.2277 37.4006 37.4006C38.2277 36.5735 38.8832 35.5911 39.3293 34.5098C39.7754 33.4285 40.0033 32.2697 40 31.1V8.90004C40.0033 7.73034 39.7754 6.57154 39.3293 5.49025C38.8832 4.40897 38.2277 3.42653 37.4006 2.59943C36.5735 1.77233 35.5911 1.11689 34.5098 0.670787C33.4285 0.224689 32.2697 -0.00326425 31.1 3.5314e-05H8.90004ZM19.7713 4.27629C23.665 4.27629 27.1863 5.78129 29.87 8.59254C31.9088 10.7088 33.0538 12.9538 33.64 15.9113C33.8413 16.895 33.8413 19.5763 33.6513 20.6825C33.0288 24.2001 31.1016 27.3531 28.255 29.5113C27.24 30.28 24.7588 31.615 24.3613 31.615C24.2113 31.615 24.2 31.465 24.265 30.8463C24.3888 29.8563 24.505 29.655 25.065 29.42C25.9563 29.05 27.48 27.9613 28.4113 27.0313C30.0394 25.4036 31.1958 23.3651 31.7575 21.1325C32.1088 19.7575 32.0625 16.7038 31.6788 15.2925C30.4675 10.7988 26.795 7.31129 22.3038 6.37254C21.0025 6.10629 18.625 6.10629 17.3038 6.37254C12.7588 7.31129 8.99504 10.9763 7.85004 15.5863C7.54379 16.8413 7.54379 19.8963 7.85004 21.1463C8.61129 24.2 10.585 26.9975 13.1688 28.665C13.6775 29.0038 14.2888 29.3488 14.5438 29.4538C15.1025 29.6938 15.2275 29.8975 15.33 30.8788C15.395 31.485 15.3813 31.6538 15.24 31.6538C15.1488 31.6538 14.465 31.36 13.7413 31.015L13.6763 30.9638C9.55504 28.9388 6.91754 25.5088 5.95504 20.9438C5.72129 19.765 5.67504 16.96 5.91004 15.8788C6.50879 12.975 7.65504 10.71 9.56129 8.70504C12.31 5.80629 15.845 4.27629 19.7763 4.27629H19.7713ZM20 8.96504C20.618 8.96356 21.2347 9.02217 21.8413 9.14003C26.485 10.175 29.7713 14.8188 29.1325 19.4263C28.8788 21.2875 28.2413 22.8125 27.1088 24.2313C26.5488 24.9475 25.1875 26.1463 24.9475 26.1463C24.9075 26.1463 24.8688 25.69 24.8688 25.1425V24.1325L25.5588 23.3063C28.175 20.175 27.9875 15.8 25.135 12.9363C24.0288 11.8163 22.745 11.1575 21.0913 10.86C20.025 10.6588 19.8025 10.6588 18.6825 10.8463C16.9775 11.12 15.6613 11.7763 14.4888 12.9363C11.625 15.775 11.435 20.175 14.0538 23.3063L14.7438 24.1325V25.1488C14.7438 25.7088 14.6975 26.1575 14.6388 26.1575C14.5938 26.1575 14.2025 25.8913 13.785 25.5588L13.7263 25.5388C12.34 24.4325 11.1163 22.4725 10.6075 20.545C10.3025 19.38 10.3025 17.1738 10.6213 16.0138C11.4613 12.8825 13.7725 10.4538 16.97 9.31504C17.6538 9.07379 18.8563 8.94379 19.99 8.96379L20 8.96504ZM19.7788 13.945C20.3 13.945 20.8138 14.05 21.1925 14.245C21.9988 14.6688 22.6713 15.4813 22.9238 16.3413C23.6988 18.9713 20.9125 21.2763 18.385 20.0975H18.3663C17.175 19.5438 16.5363 18.5025 16.5225 17.1475C16.5225 15.9238 17.1988 14.8625 18.3775 14.2375C18.7488 14.0425 19.2638 13.9438 19.7838 13.9438L19.7788 13.945ZM19.765 21.83C21.4138 21.8238 22.6038 22.4088 23.0463 23.4438C23.3775 24.2188 23.255 26.66 22.6813 30.6125C22.2975 33.3725 22.0825 34.0688 21.55 34.5388C20.8138 35.1888 19.7788 35.3725 18.7888 35.02H18.7838C17.5925 34.59 17.3375 34.01 16.8425 30.6113C16.2775 26.66 16.1525 24.2175 16.4863 23.4425C16.9213 22.4138 18.1063 21.8363 19.7663 21.8288L19.765 21.83Z" fill="white"/>
</svg>
