<svg width="26" height="26" viewBox="0 0 26 26" fill="none" xmlns="http://www.w3.org/2000/svg">
<path d="M7.70318 13.708H8.05332C11.7554 13.708 14.7565 16.7091 14.7565 20.4112C14.7565 22.6951 12.905 24.5466 10.6211 24.5466H5.13545C2.85151 24.5466 1 22.6951 1 20.4112C1 16.7091 4.00112 13.708 7.70318 13.708Z" stroke="black" stroke-width="2"/>
<path d="M17.8834 13.708H18.2335C21.9356 13.708 24.9367 16.7091 24.9367 20.4112C24.9367 22.6951 23.0852 24.5466 20.8012 24.5466H15.3156C13.0317 24.5466 11.1802 22.6951 11.1802 20.4112C11.1802 16.7091 14.1813 13.708 17.8834 13.708Z" stroke="black" stroke-width="2"/>
<circle cx="8.17014" cy="5.70529" r="4.25217" stroke="black" stroke-width="2"/>
<circle cx="18.8034" cy="5.70529" r="4.25217" stroke="black" stroke-width="2"/>
</svg>
