<svg width="31" height="30" viewBox="0 0 31 30" fill="none" xmlns="http://www.w3.org/2000/svg">
<path d="M28.3518 3.77824L20.8518 1.90324C20.6603 1.85571 20.4586 1.86948 20.2753 1.94262L11.1815 5.58012L3.97684 3.77824C3.8386 3.74361 3.69429 3.74095 3.55488 3.77046C3.41546 3.79998 3.28461 3.86088 3.17226 3.94855C3.05992 4.03622 2.96903 4.14835 2.90653 4.27642C2.84402 4.40448 2.81153 4.54511 2.81152 4.68762V25.3126C2.81153 25.5216 2.88137 25.7246 3.00995 25.8894C3.13853 26.0541 3.31848 26.1712 3.52121 26.222L11.0212 28.097C11.0958 28.1154 11.1722 28.1249 11.249 28.1251C11.3685 28.1252 11.4869 28.1022 11.5978 28.0576L20.6915 24.4201L27.8971 26.222C28.0353 26.2565 28.1795 26.259 28.3188 26.2294C28.4581 26.1998 28.5888 26.1389 28.7011 26.0512C28.8133 25.9636 28.9041 25.8515 28.9665 25.7235C29.029 25.5955 29.0615 25.455 29.0615 25.3126V4.68762C29.0615 4.47862 28.9917 4.27562 28.8631 4.11086C28.7345 3.9461 28.5546 3.82903 28.3518 3.77824V3.77824ZM27.1865 10.3126H21.5615V4.01262L27.1865 5.41887V10.3126ZM10.3115 17.8126H4.68652V12.1876H10.3115V17.8126ZM12.1865 10.3126V7.1973L19.6865 4.1973V10.3126H12.1865ZM19.6865 12.1876V17.8126H12.1865V12.1876H19.6865ZM12.1865 19.6876H19.6865V22.8029L12.1865 25.8029V19.6876ZM21.5615 12.1876H27.1865V17.8126H21.5615V12.1876ZM10.3115 7.29387V10.3126H4.68652V5.88762L10.3115 7.29387ZM4.68652 19.6876H10.3115V25.9876L4.68652 24.5814V19.6876ZM21.5615 22.7054V19.6876H27.1865V24.1126L21.5615 22.7054Z" fill="#07242A"/>
</svg>
