<svg width="28" height="28" viewBox="0 0 28 28" fill="none" xmlns="http://www.w3.org/2000/svg">
<g clip-path="url(#clip0_21_227)">
<path d="M25.5501 21.8787L25.2856 21.6454C24.5354 20.9769 23.8788 20.2104 23.3334 19.3665C22.7378 18.2018 22.3808 16.9299 22.2834 15.6254V11.7831C22.2886 9.73418 21.5453 7.75385 20.1933 6.21424C18.8413 4.67463 16.9737 3.68171 14.9412 3.42204V2.4187C14.9412 2.14332 14.8318 1.87922 14.6371 1.68449C14.4424 1.48977 14.1783 1.38037 13.9029 1.38037C13.6275 1.38037 13.3634 1.48977 13.1687 1.68449C12.9739 1.87922 12.8645 2.14332 12.8645 2.4187V3.43759C10.8503 3.71598 9.00518 4.7149 7.67095 6.24934C6.33671 7.78378 5.60377 9.74976 5.60787 11.7831V15.6254C5.51046 16.9299 5.15347 18.2018 4.55787 19.3665C4.02189 20.2083 3.3758 20.9747 2.63676 21.6454L2.37231 21.8787V24.072H25.5501V21.8787Z" fill="black"/>
<path d="M25.5501 21.8787L25.2856 21.6454C24.5354 20.9769 23.8788 20.2104 23.3334 19.3665C22.7378 18.2018 22.3808 16.9299 22.2834 15.6254V11.7831C22.2886 9.73418 21.5453 7.75385 20.1933 6.21424C18.8413 4.67463 16.9737 3.68171 14.9412 3.42204V2.4187C14.9412 2.14332 14.8318 1.87922 14.6371 1.68449C14.4424 1.48977 14.1783 1.38037 13.9029 1.38037C13.6275 1.38037 13.3634 1.48977 13.1687 1.68449C12.9739 1.87922 12.8645 2.14332 12.8645 2.4187V3.43759C10.8503 3.71598 9.00518 4.7149 7.67095 6.24934C6.33671 7.78378 5.60377 9.74976 5.60787 11.7831V15.6254C5.51046 16.9299 5.15347 18.2018 4.55787 19.3665C4.02189 20.2083 3.3758 20.9747 2.63676 21.6454L2.37231 21.8787V24.072H25.5501V21.8787Z" fill="black"/>
<path d="M11.9155 24.8887C11.9837 25.3817 12.228 25.8334 12.6033 26.1603C12.9786 26.4872 13.4595 26.6673 13.9572 26.6673C14.4549 26.6673 14.9358 26.4872 15.3111 26.1603C15.6864 25.8334 15.9307 25.3817 15.9989 24.8887H11.9155Z" fill="black"/>
</g>
<defs>
<clipPath id="clip0_21_227">
<rect width="28" height="28" fill="white"/>
</clipPath>
</defs>
</svg>
